<mxfile host="app.diagrams.net" modified="2023-10-11T10:10:21.111Z" agent="Mozilla/5.0 (Windows NT 10.0; Win64; x64) AppleWebKit/537.36 (KHTML, like Gecko) Chrome/117.0.0.0 Safari/537.36" etag="LN1YhVMwXRx0NPxD0Gnj" version="22.0.4" type="github">
  <diagram name="Page-1" id="ERfaTNpO82ZycKOBVBtr">
    <mxGraphModel dx="11448" dy="3025" grid="1" gridSize="10" guides="1" tooltips="1" connect="1" arrows="1" fold="1" page="1" pageScale="1" pageWidth="2339" pageHeight="3300" math="0" shadow="0">
      <root>
        <mxCell id="0" />
        <mxCell id="1" parent="0" />
        <mxCell id="yzoUzGmXwBwxAD_dndwE-313" value="" style="rounded=0;whiteSpace=wrap;html=1;fillColor=#e1d5e7;strokeColor=#9673a6;" vertex="1" parent="1">
          <mxGeometry x="-4658" y="860" width="2299" height="1420" as="geometry" />
        </mxCell>
        <mxCell id="yzoUzGmXwBwxAD_dndwE-314" value="" style="rounded=0;whiteSpace=wrap;html=1;" vertex="1" parent="1">
          <mxGeometry x="-3359" y="1037" width="960" height="840" as="geometry" />
        </mxCell>
        <mxCell id="yzoUzGmXwBwxAD_dndwE-315" value="" style="rounded=0;whiteSpace=wrap;html=1;fillColor=#f8cecc;strokeColor=#b85450;" vertex="1" parent="1">
          <mxGeometry x="-3301" y="1685" width="252" height="80" as="geometry" />
        </mxCell>
        <mxCell id="yzoUzGmXwBwxAD_dndwE-316" value="" style="rounded=0;whiteSpace=wrap;html=1;fillColor=#e1d5e7;strokeColor=#9673a6;" vertex="1" parent="1">
          <mxGeometry x="-3301" y="1575" width="772" height="80" as="geometry" />
        </mxCell>
        <mxCell id="yzoUzGmXwBwxAD_dndwE-317" value="" style="rounded=0;whiteSpace=wrap;html=1;fillColor=#d5e8d4;strokeColor=#82b366;" vertex="1" parent="1">
          <mxGeometry x="-3301" y="1467" width="772" height="80" as="geometry" />
        </mxCell>
        <mxCell id="yzoUzGmXwBwxAD_dndwE-318" value="" style="square=1;whiteSpace=wrap;html=1;" vertex="1" parent="1">
          <mxGeometry x="-4629" y="1030" width="1100" height="1210" as="geometry" />
        </mxCell>
        <mxCell id="yzoUzGmXwBwxAD_dndwE-319" value="" style="edgeStyle=orthogonalEdgeStyle;rounded=1;orthogonalLoop=1;jettySize=auto;html=1;entryX=0;entryY=0.5;entryDx=0;entryDy=0;" edge="1" parent="1" source="yzoUzGmXwBwxAD_dndwE-320" target="yzoUzGmXwBwxAD_dndwE-353">
          <mxGeometry relative="1" as="geometry">
            <mxPoint x="-4204" y="2030" as="targetPoint" />
            <Array as="points">
              <mxPoint x="-4239" y="1967" />
            </Array>
          </mxGeometry>
        </mxCell>
        <mxCell id="yzoUzGmXwBwxAD_dndwE-320" value="" style="rounded=1;whiteSpace=wrap;html=1;fillColor=#b0e3e6;strokeColor=#0e8088;" vertex="1" parent="1">
          <mxGeometry x="-4579" y="1580" width="750" height="370" as="geometry" />
        </mxCell>
        <mxCell id="yzoUzGmXwBwxAD_dndwE-321" value="" style="rounded=1;whiteSpace=wrap;html=1;fillColor=#d5e8d4;strokeColor=#82b366;" vertex="1" parent="1">
          <mxGeometry x="-4559" y="1652.5" width="230" height="273" as="geometry" />
        </mxCell>
        <mxCell id="yzoUzGmXwBwxAD_dndwE-322" value="" style="rounded=1;whiteSpace=wrap;html=1;fillColor=#f8cecc;strokeColor=#b85450;" vertex="1" parent="1">
          <mxGeometry x="-4237.5" y="1644" width="397" height="290" as="geometry" />
        </mxCell>
        <mxCell id="yzoUzGmXwBwxAD_dndwE-323" value="" style="edgeStyle=orthogonalEdgeStyle;rounded=1;orthogonalLoop=1;jettySize=auto;html=1;" edge="1" parent="1" source="yzoUzGmXwBwxAD_dndwE-324" target="yzoUzGmXwBwxAD_dndwE-327">
          <mxGeometry relative="1" as="geometry" />
        </mxCell>
        <mxCell id="yzoUzGmXwBwxAD_dndwE-324" value="Start" style="rounded=1;whiteSpace=wrap;html=1;fontSize=12;glass=0;strokeWidth=1;shadow=0;fillColor=#d5e8d4;gradientColor=#97d077;strokeColor=#82b366;" vertex="1" parent="1">
          <mxGeometry x="-4148" y="1052" width="100" height="30" as="geometry" />
        </mxCell>
        <mxCell id="yzoUzGmXwBwxAD_dndwE-325" value="" style="edgeStyle=orthogonalEdgeStyle;rounded=1;orthogonalLoop=1;jettySize=auto;html=1;" edge="1" parent="1" source="yzoUzGmXwBwxAD_dndwE-327" target="yzoUzGmXwBwxAD_dndwE-332">
          <mxGeometry relative="1" as="geometry" />
        </mxCell>
        <mxCell id="yzoUzGmXwBwxAD_dndwE-326" value="" style="edgeStyle=orthogonalEdgeStyle;rounded=1;orthogonalLoop=1;jettySize=auto;html=1;" edge="1" parent="1" source="yzoUzGmXwBwxAD_dndwE-327" target="yzoUzGmXwBwxAD_dndwE-329">
          <mxGeometry relative="1" as="geometry" />
        </mxCell>
        <mxCell id="yzoUzGmXwBwxAD_dndwE-327" value="&lt;font style=&quot;font-size: 10px;&quot;&gt;Create Server Socket&lt;/font&gt;" style="rhombus;whiteSpace=wrap;html=1;shadow=0;fontFamily=Helvetica;fontSize=12;align=center;strokeWidth=1;spacing=6;spacingTop=-4;rounded=1;" vertex="1" parent="1">
          <mxGeometry x="-4148" y="1117" width="100" height="80" as="geometry" />
        </mxCell>
        <mxCell id="yzoUzGmXwBwxAD_dndwE-328" value="" style="edgeStyle=orthogonalEdgeStyle;rounded=1;orthogonalLoop=1;jettySize=auto;html=1;entryX=0;entryY=0.5;entryDx=0;entryDy=0;" edge="1" parent="1" source="yzoUzGmXwBwxAD_dndwE-329" target="yzoUzGmXwBwxAD_dndwE-394">
          <mxGeometry relative="1" as="geometry">
            <mxPoint x="-3798" y="1157" as="targetPoint" />
          </mxGeometry>
        </mxCell>
        <mxCell id="yzoUzGmXwBwxAD_dndwE-329" value="Error Message" style="rounded=1;whiteSpace=wrap;html=1;fontSize=12;glass=0;strokeWidth=1;shadow=0;" vertex="1" parent="1">
          <mxGeometry x="-3998" y="1142" width="120" height="30" as="geometry" />
        </mxCell>
        <mxCell id="yzoUzGmXwBwxAD_dndwE-330" value="" style="edgeStyle=orthogonalEdgeStyle;rounded=1;orthogonalLoop=1;jettySize=auto;html=1;" edge="1" parent="1" source="yzoUzGmXwBwxAD_dndwE-332" target="yzoUzGmXwBwxAD_dndwE-337">
          <mxGeometry relative="1" as="geometry" />
        </mxCell>
        <mxCell id="yzoUzGmXwBwxAD_dndwE-331" value="" style="edgeStyle=orthogonalEdgeStyle;rounded=1;orthogonalLoop=1;jettySize=auto;html=1;" edge="1" parent="1" source="yzoUzGmXwBwxAD_dndwE-332" target="yzoUzGmXwBwxAD_dndwE-334">
          <mxGeometry relative="1" as="geometry" />
        </mxCell>
        <mxCell id="yzoUzGmXwBwxAD_dndwE-332" value="&lt;font style=&quot;font-size: 11px;&quot;&gt;Binding Socket&amp;nbsp;&lt;/font&gt;" style="rhombus;whiteSpace=wrap;html=1;shadow=0;fontFamily=Helvetica;fontSize=12;align=center;strokeWidth=1;spacing=6;spacingTop=-4;rounded=1;" vertex="1" parent="1">
          <mxGeometry x="-4148" y="1229" width="100" height="80" as="geometry" />
        </mxCell>
        <mxCell id="yzoUzGmXwBwxAD_dndwE-333" value="" style="edgeStyle=orthogonalEdgeStyle;rounded=1;orthogonalLoop=1;jettySize=auto;html=1;" edge="1" parent="1" source="yzoUzGmXwBwxAD_dndwE-334" target="yzoUzGmXwBwxAD_dndwE-394">
          <mxGeometry relative="1" as="geometry" />
        </mxCell>
        <mxCell id="yzoUzGmXwBwxAD_dndwE-334" value="Error Message" style="rounded=1;whiteSpace=wrap;html=1;fontSize=12;glass=0;strokeWidth=1;shadow=0;" vertex="1" parent="1">
          <mxGeometry x="-3998" y="1254" width="120" height="30" as="geometry" />
        </mxCell>
        <mxCell id="yzoUzGmXwBwxAD_dndwE-335" value="" style="edgeStyle=orthogonalEdgeStyle;rounded=1;orthogonalLoop=1;jettySize=auto;html=1;exitX=1;exitY=0.5;exitDx=0;exitDy=0;" edge="1" parent="1" source="yzoUzGmXwBwxAD_dndwE-337" target="yzoUzGmXwBwxAD_dndwE-339">
          <mxGeometry relative="1" as="geometry">
            <mxPoint x="-4038" y="1390" as="sourcePoint" />
          </mxGeometry>
        </mxCell>
        <mxCell id="yzoUzGmXwBwxAD_dndwE-336" value="" style="edgeStyle=orthogonalEdgeStyle;rounded=1;orthogonalLoop=1;jettySize=auto;html=1;exitX=0.5;exitY=1;exitDx=0;exitDy=0;" edge="1" parent="1" source="yzoUzGmXwBwxAD_dndwE-337" target="yzoUzGmXwBwxAD_dndwE-343">
          <mxGeometry relative="1" as="geometry">
            <mxPoint x="-4118" y="1450" as="sourcePoint" />
          </mxGeometry>
        </mxCell>
        <mxCell id="yzoUzGmXwBwxAD_dndwE-337" value="&lt;font style=&quot;font-size: 9px;&quot;&gt;Listening to &lt;br&gt;the Client Request&lt;/font&gt;" style="rhombus;whiteSpace=wrap;html=1;shadow=0;fontFamily=Helvetica;fontSize=12;align=center;strokeWidth=1;spacing=6;spacingTop=-4;rounded=1;" vertex="1" parent="1">
          <mxGeometry x="-4148" y="1350" width="100" height="80" as="geometry" />
        </mxCell>
        <mxCell id="yzoUzGmXwBwxAD_dndwE-338" style="edgeStyle=orthogonalEdgeStyle;rounded=1;orthogonalLoop=1;jettySize=auto;html=1;entryX=0;entryY=0.5;entryDx=0;entryDy=0;" edge="1" parent="1" source="yzoUzGmXwBwxAD_dndwE-339" target="yzoUzGmXwBwxAD_dndwE-394">
          <mxGeometry relative="1" as="geometry" />
        </mxCell>
        <mxCell id="yzoUzGmXwBwxAD_dndwE-339" value="Error Message&amp;nbsp;" style="rounded=1;whiteSpace=wrap;html=1;shadow=0;strokeWidth=1;spacing=6;spacingTop=-4;" vertex="1" parent="1">
          <mxGeometry x="-3998" y="1375" width="120" height="30" as="geometry" />
        </mxCell>
        <mxCell id="yzoUzGmXwBwxAD_dndwE-340" value="" style="edgeStyle=orthogonalEdgeStyle;rounded=1;orthogonalLoop=1;jettySize=auto;html=1;" edge="1" parent="1" source="yzoUzGmXwBwxAD_dndwE-343" target="yzoUzGmXwBwxAD_dndwE-346">
          <mxGeometry relative="1" as="geometry" />
        </mxCell>
        <mxCell id="yzoUzGmXwBwxAD_dndwE-341" value="" style="edgeStyle=orthogonalEdgeStyle;rounded=1;orthogonalLoop=1;jettySize=auto;html=1;entryX=0.456;entryY=0.001;entryDx=0;entryDy=0;entryPerimeter=0;" edge="1" parent="1" target="yzoUzGmXwBwxAD_dndwE-351">
          <mxGeometry relative="1" as="geometry">
            <mxPoint x="-4098" y="1525" as="sourcePoint" />
            <mxPoint x="-4198" y="1592" as="targetPoint" />
            <Array as="points">
              <mxPoint x="-4098" y="1572" />
              <mxPoint x="-4289" y="1572" />
            </Array>
          </mxGeometry>
        </mxCell>
        <mxCell id="yzoUzGmXwBwxAD_dndwE-342" style="edgeStyle=orthogonalEdgeStyle;rounded=1;orthogonalLoop=1;jettySize=auto;html=1;exitX=0.5;exitY=1;exitDx=0;exitDy=0;entryX=0.5;entryY=0;entryDx=0;entryDy=0;" edge="1" parent="1" source="yzoUzGmXwBwxAD_dndwE-343" target="yzoUzGmXwBwxAD_dndwE-353">
          <mxGeometry relative="1" as="geometry">
            <mxPoint x="-3888" y="1734" as="targetPoint" />
            <mxPoint x="-4098" y="1602" as="sourcePoint" />
            <Array as="points">
              <mxPoint x="-4098" y="1572" />
              <mxPoint x="-3739" y="1572" />
            </Array>
          </mxGeometry>
        </mxCell>
        <mxCell id="yzoUzGmXwBwxAD_dndwE-343" value="&lt;font style=&quot;font-size: 9px;&quot;&gt;Accepting Client Requests&lt;/font&gt;" style="rhombus;whiteSpace=wrap;html=1;shadow=0;fontFamily=Helvetica;fontSize=12;align=center;strokeWidth=1;spacing=6;spacingTop=-4;rounded=1;" vertex="1" parent="1">
          <mxGeometry x="-4148" y="1470" width="100" height="80" as="geometry" />
        </mxCell>
        <mxCell id="yzoUzGmXwBwxAD_dndwE-344" value="&lt;span style=&quot;color: rgb(0, 0, 0); font-family: Helvetica; font-size: 11px; font-style: normal; font-variant-ligatures: normal; font-variant-caps: normal; font-weight: 400; letter-spacing: normal; orphans: 2; text-align: center; text-indent: 0px; text-transform: none; widows: 2; word-spacing: 0px; -webkit-text-stroke-width: 0px; background-color: rgb(251, 251, 251); text-decoration-thickness: initial; text-decoration-style: initial; text-decoration-color: initial; float: none; display: inline !important;&quot;&gt;-1&lt;/span&gt;" style="text;whiteSpace=wrap;html=1;rounded=1;" vertex="1" parent="1">
          <mxGeometry x="-4028" y="1365" width="40" height="40" as="geometry" />
        </mxCell>
        <mxCell id="yzoUzGmXwBwxAD_dndwE-345" value="" style="edgeStyle=orthogonalEdgeStyle;rounded=1;orthogonalLoop=1;jettySize=auto;html=1;" edge="1" parent="1" source="yzoUzGmXwBwxAD_dndwE-346">
          <mxGeometry relative="1" as="geometry">
            <mxPoint x="-3858" y="1450" as="targetPoint" />
            <Array as="points">
              <mxPoint x="-3858" y="1510" />
              <mxPoint x="-3858" y="1460" />
            </Array>
          </mxGeometry>
        </mxCell>
        <mxCell id="yzoUzGmXwBwxAD_dndwE-346" value="Error Message" style="rounded=1;whiteSpace=wrap;html=1;shadow=0;strokeWidth=1;spacing=6;spacingTop=-4;" vertex="1" parent="1">
          <mxGeometry x="-3995.5" y="1495" width="117.5" height="30" as="geometry" />
        </mxCell>
        <mxCell id="yzoUzGmXwBwxAD_dndwE-347" value="&lt;span style=&quot;color: rgb(0, 0, 0); font-family: Helvetica; font-size: 11px; font-style: normal; font-variant-ligatures: normal; font-variant-caps: normal; font-weight: 400; letter-spacing: normal; orphans: 2; text-align: center; text-indent: 0px; text-transform: none; widows: 2; word-spacing: 0px; -webkit-text-stroke-width: 0px; background-color: rgb(251, 251, 251); text-decoration-thickness: initial; text-decoration-style: initial; text-decoration-color: initial; float: none; display: inline !important;&quot;&gt;-1&lt;/span&gt;" style="text;whiteSpace=wrap;html=1;rounded=1;" vertex="1" parent="1">
          <mxGeometry x="-4028" y="1485" width="40" height="40" as="geometry" />
        </mxCell>
        <mxCell id="yzoUzGmXwBwxAD_dndwE-348" value="" style="edgeStyle=orthogonalEdgeStyle;rounded=1;orthogonalLoop=1;jettySize=auto;html=1;" edge="1" parent="1">
          <mxGeometry relative="1" as="geometry">
            <mxPoint x="-3858" y="1460" as="sourcePoint" />
            <mxPoint x="-4098" y="1450" as="targetPoint" />
            <Array as="points">
              <mxPoint x="-3858" y="1450" />
            </Array>
          </mxGeometry>
        </mxCell>
        <mxCell id="yzoUzGmXwBwxAD_dndwE-349" value="" style="edgeStyle=orthogonalEdgeStyle;rounded=1;orthogonalLoop=1;jettySize=auto;html=1;entryX=0.5;entryY=0;entryDx=0;entryDy=0;exitX=0.5;exitY=1;exitDx=0;exitDy=0;" edge="1" parent="1" source="yzoUzGmXwBwxAD_dndwE-351" target="yzoUzGmXwBwxAD_dndwE-355">
          <mxGeometry relative="1" as="geometry">
            <mxPoint x="-4143" y="1602" as="sourcePoint" />
            <mxPoint x="-4344" y="1640" as="targetPoint" />
            <Array as="points">
              <mxPoint x="-4284" y="1630" />
              <mxPoint x="-4463" y="1630" />
            </Array>
          </mxGeometry>
        </mxCell>
        <mxCell id="yzoUzGmXwBwxAD_dndwE-350" value="" style="edgeStyle=orthogonalEdgeStyle;rounded=1;orthogonalLoop=1;jettySize=auto;html=1;entryX=0.5;entryY=0;entryDx=0;entryDy=0;exitX=0.5;exitY=1;exitDx=0;exitDy=0;" edge="1" parent="1" source="yzoUzGmXwBwxAD_dndwE-351" target="yzoUzGmXwBwxAD_dndwE-366">
          <mxGeometry relative="1" as="geometry">
            <mxPoint x="-4140" y="1623" as="sourcePoint" />
            <mxPoint x="-4043" y="1678.5" as="targetPoint" />
            <Array as="points">
              <mxPoint x="-4284" y="1630" />
              <mxPoint x="-4043" y="1630" />
            </Array>
          </mxGeometry>
        </mxCell>
        <mxCell id="yzoUzGmXwBwxAD_dndwE-351" value="&lt;font style=&quot;font-size: 9px;&quot;&gt;Handle Client thread Created&lt;/font&gt;" style="rounded=1;whiteSpace=wrap;html=1;shadow=0;strokeWidth=1;spacing=6;spacingTop=-4;" vertex="1" parent="1">
          <mxGeometry x="-4339" y="1592" width="110" height="30" as="geometry" />
        </mxCell>
        <mxCell id="yzoUzGmXwBwxAD_dndwE-352" value="" style="edgeStyle=orthogonalEdgeStyle;rounded=1;orthogonalLoop=1;jettySize=auto;html=1;" edge="1" parent="1" source="yzoUzGmXwBwxAD_dndwE-353">
          <mxGeometry relative="1" as="geometry">
            <mxPoint x="-4099" y="1450" as="targetPoint" />
            <Array as="points">
              <mxPoint x="-3589" y="1967" />
              <mxPoint x="-3589" y="1450" />
            </Array>
          </mxGeometry>
        </mxCell>
        <mxCell id="yzoUzGmXwBwxAD_dndwE-353" value="&lt;font style=&quot;font-size: 12px;&quot;&gt;Waiting for Handle Client thread to Join&lt;/font&gt;" style="rounded=1;whiteSpace=wrap;html=1;fillColor=#dae8fc;strokeColor=#6c8ebf;" vertex="1" parent="1">
          <mxGeometry x="-3799" y="1819.69" width="120" height="295" as="geometry" />
        </mxCell>
        <mxCell id="yzoUzGmXwBwxAD_dndwE-354" value="" style="edgeStyle=orthogonalEdgeStyle;rounded=1;orthogonalLoop=1;jettySize=auto;html=1;" edge="1" parent="1" source="yzoUzGmXwBwxAD_dndwE-355" target="yzoUzGmXwBwxAD_dndwE-382">
          <mxGeometry relative="1" as="geometry" />
        </mxCell>
        <mxCell id="yzoUzGmXwBwxAD_dndwE-355" value="&lt;font style=&quot;font-size: 9px;&quot;&gt;Handle Send Thread&lt;/font&gt;" style="rounded=1;whiteSpace=wrap;html=1;shadow=0;strokeWidth=1;spacing=6;spacingTop=-4;" vertex="1" parent="1">
          <mxGeometry x="-4518" y="1662.5" width="110" height="20" as="geometry" />
        </mxCell>
        <mxCell id="yzoUzGmXwBwxAD_dndwE-356" value="" style="edgeStyle=orthogonalEdgeStyle;rounded=1;orthogonalLoop=1;jettySize=auto;html=1;" edge="1" parent="1" source="yzoUzGmXwBwxAD_dndwE-357" target="yzoUzGmXwBwxAD_dndwE-360">
          <mxGeometry relative="1" as="geometry" />
        </mxCell>
        <mxCell id="yzoUzGmXwBwxAD_dndwE-357" value="&lt;font size=&quot;1&quot;&gt;Receive System call&lt;/font&gt;" style="rounded=1;whiteSpace=wrap;html=1;shadow=0;strokeWidth=1;spacing=6;spacingTop=-4;" vertex="1" parent="1">
          <mxGeometry x="-4100" y="1694" width="110" height="30" as="geometry" />
        </mxCell>
        <mxCell id="yzoUzGmXwBwxAD_dndwE-358" value="" style="edgeStyle=orthogonalEdgeStyle;rounded=1;orthogonalLoop=1;jettySize=auto;html=1;" edge="1" parent="1" source="yzoUzGmXwBwxAD_dndwE-360" target="yzoUzGmXwBwxAD_dndwE-364">
          <mxGeometry relative="1" as="geometry" />
        </mxCell>
        <mxCell id="yzoUzGmXwBwxAD_dndwE-359" value="" style="edgeStyle=orthogonalEdgeStyle;rounded=1;orthogonalLoop=1;jettySize=auto;html=1;" edge="1" parent="1" source="yzoUzGmXwBwxAD_dndwE-360" target="yzoUzGmXwBwxAD_dndwE-373">
          <mxGeometry relative="1" as="geometry" />
        </mxCell>
        <mxCell id="yzoUzGmXwBwxAD_dndwE-360" value="&lt;font style=&quot;font-size: 9px;&quot;&gt;login&lt;/font&gt;" style="rhombus;whiteSpace=wrap;html=1;rounded=1;" vertex="1" parent="1">
          <mxGeometry x="-4070" y="1745" width="50" height="40" as="geometry" />
        </mxCell>
        <mxCell id="yzoUzGmXwBwxAD_dndwE-361" value="&lt;font style=&quot;font-size: 9px;&quot;&gt;if&lt;/font&gt;" style="text;html=1;align=center;verticalAlign=middle;resizable=0;points=[];autosize=1;strokeColor=none;fillColor=none;rounded=1;" vertex="1" parent="1">
          <mxGeometry x="-4054" y="1715" width="30" height="30" as="geometry" />
        </mxCell>
        <mxCell id="yzoUzGmXwBwxAD_dndwE-362" value="" style="edgeStyle=orthogonalEdgeStyle;rounded=1;orthogonalLoop=1;jettySize=auto;html=1;" edge="1" parent="1" source="yzoUzGmXwBwxAD_dndwE-364" target="yzoUzGmXwBwxAD_dndwE-369">
          <mxGeometry relative="1" as="geometry" />
        </mxCell>
        <mxCell id="yzoUzGmXwBwxAD_dndwE-363" value="" style="edgeStyle=orthogonalEdgeStyle;rounded=1;orthogonalLoop=1;jettySize=auto;html=1;" edge="1" parent="1" source="yzoUzGmXwBwxAD_dndwE-364" target="yzoUzGmXwBwxAD_dndwE-377">
          <mxGeometry relative="1" as="geometry" />
        </mxCell>
        <mxCell id="yzoUzGmXwBwxAD_dndwE-364" value="&lt;font style=&quot;font-size: 9px;&quot;&gt;Signup&lt;/font&gt;" style="rhombus;whiteSpace=wrap;html=1;rounded=1;" vertex="1" parent="1">
          <mxGeometry x="-4072.5" y="1804" width="55" height="49" as="geometry" />
        </mxCell>
        <mxCell id="yzoUzGmXwBwxAD_dndwE-365" value="" style="edgeStyle=orthogonalEdgeStyle;rounded=1;orthogonalLoop=1;jettySize=auto;html=1;" edge="1" parent="1" source="yzoUzGmXwBwxAD_dndwE-366">
          <mxGeometry relative="1" as="geometry">
            <mxPoint x="-4045" y="1692" as="targetPoint" />
            <Array as="points">
              <mxPoint x="-4045" y="1692" />
            </Array>
          </mxGeometry>
        </mxCell>
        <mxCell id="yzoUzGmXwBwxAD_dndwE-366" value="&lt;font style=&quot;font-size: 9px;&quot;&gt;Handle Receive Thread&lt;/font&gt;" style="rounded=1;whiteSpace=wrap;html=1;shadow=0;strokeWidth=1;spacing=6;spacingTop=-4;" vertex="1" parent="1">
          <mxGeometry x="-4100" y="1650" width="114" height="20" as="geometry" />
        </mxCell>
        <mxCell id="yzoUzGmXwBwxAD_dndwE-367" value="&lt;font style=&quot;font-size: 9px;&quot;&gt;else if&lt;/font&gt;" style="text;html=1;align=center;verticalAlign=middle;resizable=0;points=[];autosize=1;strokeColor=none;fillColor=none;rounded=1;" vertex="1" parent="1">
          <mxGeometry x="-4054" y="1774" width="50" height="30" as="geometry" />
        </mxCell>
        <mxCell id="yzoUzGmXwBwxAD_dndwE-368" value="" style="edgeStyle=orthogonalEdgeStyle;rounded=1;orthogonalLoop=1;jettySize=auto;html=1;entryX=0;entryY=0.25;entryDx=0;entryDy=0;exitX=0;exitY=0.5;exitDx=0;exitDy=0;" edge="1" parent="1" source="yzoUzGmXwBwxAD_dndwE-369">
          <mxGeometry relative="1" as="geometry">
            <mxPoint x="-4085" y="1897.0222222222224" as="sourcePoint" />
            <mxPoint x="-4111.25" y="1701.5" as="targetPoint" />
            <Array as="points">
              <mxPoint x="-4237" y="1897" />
              <mxPoint x="-4237" y="1702" />
            </Array>
          </mxGeometry>
        </mxCell>
        <mxCell id="yzoUzGmXwBwxAD_dndwE-369" value="&lt;font style=&quot;font-size: 9px;&quot;&gt;Messages from Client&lt;/font&gt;" style="rounded=1;whiteSpace=wrap;html=1;" vertex="1" parent="1">
          <mxGeometry x="-4073.75" y="1882" width="57.5" height="30" as="geometry" />
        </mxCell>
        <mxCell id="yzoUzGmXwBwxAD_dndwE-370" value="&lt;font style=&quot;font-size: 9px;&quot;&gt;else&lt;/font&gt;" style="text;html=1;align=center;verticalAlign=middle;resizable=0;points=[];autosize=1;strokeColor=none;fillColor=none;rounded=1;" vertex="1" parent="1">
          <mxGeometry x="-4055" y="1847" width="40" height="30" as="geometry" />
        </mxCell>
        <mxCell id="yzoUzGmXwBwxAD_dndwE-371" value="" style="edgeStyle=orthogonalEdgeStyle;rounded=1;orthogonalLoop=1;jettySize=auto;html=1;entryX=0.984;entryY=0.633;entryDx=0;entryDy=0;entryPerimeter=0;" edge="1" parent="1" source="yzoUzGmXwBwxAD_dndwE-373" target="yzoUzGmXwBwxAD_dndwE-357">
          <mxGeometry relative="1" as="geometry">
            <mxPoint x="-3985" y="1712" as="targetPoint" />
            <Array as="points">
              <mxPoint x="-3960" y="1712" />
              <mxPoint x="-3992" y="1712" />
            </Array>
          </mxGeometry>
        </mxCell>
        <mxCell id="yzoUzGmXwBwxAD_dndwE-372" value="" style="edgeStyle=orthogonalEdgeStyle;rounded=1;orthogonalLoop=1;jettySize=auto;html=1;" edge="1" parent="1" source="yzoUzGmXwBwxAD_dndwE-373" target="yzoUzGmXwBwxAD_dndwE-374">
          <mxGeometry relative="1" as="geometry" />
        </mxCell>
        <mxCell id="yzoUzGmXwBwxAD_dndwE-373" value="&lt;p style=&quot;line-height: 100%;&quot;&gt;&lt;/p&gt;&lt;div style=&quot;&quot;&gt;&lt;span style=&quot;background-color: initial;&quot;&gt;&lt;font style=&quot;font-size: 9px;&quot;&gt;Authenticate User&lt;/font&gt;&lt;/span&gt;&lt;/div&gt;&lt;p&gt;&lt;/p&gt;" style="rhombus;whiteSpace=wrap;html=1;align=center;rounded=1;" vertex="1" parent="1">
          <mxGeometry x="-3995" y="1732" width="70" height="66" as="geometry" />
        </mxCell>
        <mxCell id="yzoUzGmXwBwxAD_dndwE-374" value="&lt;font style=&quot;font-size: 8px;&quot;&gt;Return&lt;/font&gt;" style="whiteSpace=wrap;html=1;fillColor=#ffcd28;gradientColor=#ffa500;strokeColor=#d79b00;rounded=1;" vertex="1" parent="1">
          <mxGeometry x="-3901.37" y="1755" width="35.25" height="20" as="geometry" />
        </mxCell>
        <mxCell id="yzoUzGmXwBwxAD_dndwE-375" value="" style="edgeStyle=orthogonalEdgeStyle;rounded=1;orthogonalLoop=1;jettySize=auto;html=1;" edge="1" parent="1" source="yzoUzGmXwBwxAD_dndwE-377" target="yzoUzGmXwBwxAD_dndwE-357">
          <mxGeometry relative="1" as="geometry">
            <Array as="points">
              <mxPoint x="-4135" y="1712" />
            </Array>
          </mxGeometry>
        </mxCell>
        <mxCell id="yzoUzGmXwBwxAD_dndwE-376" value="" style="edgeStyle=orthogonalEdgeStyle;rounded=1;orthogonalLoop=1;jettySize=auto;html=1;" edge="1" parent="1" source="yzoUzGmXwBwxAD_dndwE-377" target="yzoUzGmXwBwxAD_dndwE-380">
          <mxGeometry relative="1" as="geometry" />
        </mxCell>
        <mxCell id="yzoUzGmXwBwxAD_dndwE-377" value="&lt;font size=&quot;1&quot;&gt;is Username taken&lt;/font&gt;" style="rhombus;whiteSpace=wrap;html=1;rounded=1;" vertex="1" parent="1">
          <mxGeometry x="-4175" y="1792" width="80" height="73" as="geometry" />
        </mxCell>
        <mxCell id="yzoUzGmXwBwxAD_dndwE-378" value="&lt;font style=&quot;font-size: 9px;&quot;&gt;yes&lt;/font&gt;" style="text;html=1;align=center;verticalAlign=middle;resizable=0;points=[];autosize=1;strokeColor=none;fillColor=none;rounded=1;" vertex="1" parent="1">
          <mxGeometry x="-3969" y="1707" width="40" height="30" as="geometry" />
        </mxCell>
        <mxCell id="yzoUzGmXwBwxAD_dndwE-379" value="&lt;font style=&quot;font-size: 9px;&quot;&gt;yes&lt;/font&gt;" style="text;html=1;align=center;verticalAlign=middle;resizable=0;points=[];autosize=1;strokeColor=none;fillColor=none;rounded=1;" vertex="1" parent="1">
          <mxGeometry x="-4143" y="1741" width="40" height="30" as="geometry" />
        </mxCell>
        <mxCell id="yzoUzGmXwBwxAD_dndwE-380" value="&lt;font style=&quot;font-size: 8px;&quot;&gt;Return&lt;/font&gt;" style="whiteSpace=wrap;html=1;align=center;fillColor=#ffcd28;gradientColor=#ffa500;strokeColor=#d79b00;rounded=1;" vertex="1" parent="1">
          <mxGeometry x="-4233" y="1819.69" width="38" height="17.62" as="geometry" />
        </mxCell>
        <mxCell id="yzoUzGmXwBwxAD_dndwE-381" value="" style="edgeStyle=orthogonalEdgeStyle;rounded=1;orthogonalLoop=1;jettySize=auto;html=1;" edge="1" parent="1" source="yzoUzGmXwBwxAD_dndwE-382" target="yzoUzGmXwBwxAD_dndwE-385">
          <mxGeometry relative="1" as="geometry" />
        </mxCell>
        <mxCell id="yzoUzGmXwBwxAD_dndwE-382" value="&lt;font style=&quot;font-size: 9px;&quot;&gt;Take Input messages from Server&lt;/font&gt;" style="rounded=1;whiteSpace=wrap;html=1;" vertex="1" parent="1">
          <mxGeometry x="-4520.5" y="1701.5" width="115" height="35" as="geometry" />
        </mxCell>
        <mxCell id="yzoUzGmXwBwxAD_dndwE-383" value="" style="edgeStyle=orthogonalEdgeStyle;rounded=1;orthogonalLoop=1;jettySize=auto;html=1;" edge="1" parent="1" source="yzoUzGmXwBwxAD_dndwE-385" target="yzoUzGmXwBwxAD_dndwE-387">
          <mxGeometry relative="1" as="geometry" />
        </mxCell>
        <mxCell id="yzoUzGmXwBwxAD_dndwE-384" value="" style="edgeStyle=orthogonalEdgeStyle;rounded=1;orthogonalLoop=1;jettySize=auto;html=1;exitX=0;exitY=0.5;exitDx=0;exitDy=0;" edge="1" parent="1" source="yzoUzGmXwBwxAD_dndwE-385" target="yzoUzGmXwBwxAD_dndwE-389">
          <mxGeometry relative="1" as="geometry">
            <mxPoint x="-4521.949367088608" y="1884.4701024713681" as="sourcePoint" />
            <Array as="points">
              <mxPoint x="-4528" y="1776.5" />
              <mxPoint x="-4528" y="1842.5" />
              <mxPoint x="-4488" y="1842.5" />
            </Array>
          </mxGeometry>
        </mxCell>
        <mxCell id="yzoUzGmXwBwxAD_dndwE-385" value="&lt;font style=&quot;font-size: 9px;&quot;&gt;@exit&lt;/font&gt;" style="rhombus;whiteSpace=wrap;html=1;rounded=1;" vertex="1" parent="1">
          <mxGeometry x="-4489.25" y="1761.5" width="52.5" height="31" as="geometry" />
        </mxCell>
        <mxCell id="yzoUzGmXwBwxAD_dndwE-386" value="" style="edgeStyle=orthogonalEdgeStyle;rounded=1;orthogonalLoop=1;jettySize=auto;html=1;entryX=1;entryY=0.5;entryDx=0;entryDy=0;" edge="1" parent="1" source="yzoUzGmXwBwxAD_dndwE-387" target="yzoUzGmXwBwxAD_dndwE-382">
          <mxGeometry relative="1" as="geometry">
            <mxPoint x="-4328" y="1822.5" as="targetPoint" />
            <Array as="points">
              <mxPoint x="-4386" y="1824.5" />
              <mxPoint x="-4386" y="1719.5" />
            </Array>
          </mxGeometry>
        </mxCell>
        <mxCell id="yzoUzGmXwBwxAD_dndwE-387" value="&lt;font style=&quot;font-size: 9px;&quot;&gt;Send Message to Client&lt;/font&gt;" style="whiteSpace=wrap;html=1;rounded=1;" vertex="1" parent="1">
          <mxGeometry x="-4515.5" y="1816.19" width="105" height="16" as="geometry" />
        </mxCell>
        <mxCell id="yzoUzGmXwBwxAD_dndwE-388" value="" style="edgeStyle=orthogonalEdgeStyle;rounded=1;orthogonalLoop=1;jettySize=auto;html=1;" edge="1" parent="1" source="yzoUzGmXwBwxAD_dndwE-389" target="yzoUzGmXwBwxAD_dndwE-391">
          <mxGeometry relative="1" as="geometry" />
        </mxCell>
        <mxCell id="yzoUzGmXwBwxAD_dndwE-389" value="&lt;font style=&quot;font-size: 9px;&quot;&gt;Send Exit Message to the Client&lt;/font&gt;" style="whiteSpace=wrap;html=1;rounded=1;" vertex="1" parent="1">
          <mxGeometry x="-4538" y="1861.5" width="110" height="28" as="geometry" />
        </mxCell>
        <mxCell id="yzoUzGmXwBwxAD_dndwE-390" value="" style="edgeStyle=orthogonalEdgeStyle;rounded=1;orthogonalLoop=1;jettySize=auto;html=1;entryX=0.5;entryY=0;entryDx=0;entryDy=0;" edge="1" parent="1" source="yzoUzGmXwBwxAD_dndwE-391" target="yzoUzGmXwBwxAD_dndwE-392">
          <mxGeometry relative="1" as="geometry">
            <mxPoint x="-4368.5" y="1967.75" as="targetPoint" />
            <Array as="points">
              <mxPoint x="-4368" y="2130" />
              <mxPoint x="-4098" y="2130" />
            </Array>
          </mxGeometry>
        </mxCell>
        <mxCell id="yzoUzGmXwBwxAD_dndwE-391" value="&lt;font style=&quot;font-size: 9px;&quot;&gt;Exit&amp;nbsp; System Call&lt;/font&gt;" style="whiteSpace=wrap;html=1;rounded=1;fillColor=#f8cecc;strokeColor=#b85450;gradientColor=#ea6b66;" vertex="1" parent="1">
          <mxGeometry x="-4398" y="1861.5" width="59" height="26.75" as="geometry" />
        </mxCell>
        <mxCell id="yzoUzGmXwBwxAD_dndwE-392" value="End Program" style="rounded=1;whiteSpace=wrap;html=1;fillColor=#f8cecc;gradientColor=#ea6b66;strokeColor=#b85450;" vertex="1" parent="1">
          <mxGeometry x="-4165.5" y="2169" width="135" height="50" as="geometry" />
        </mxCell>
        <mxCell id="yzoUzGmXwBwxAD_dndwE-393" style="edgeStyle=orthogonalEdgeStyle;rounded=1;orthogonalLoop=1;jettySize=auto;html=1;entryX=0.5;entryY=0;entryDx=0;entryDy=0;" edge="1" parent="1" source="yzoUzGmXwBwxAD_dndwE-394" target="yzoUzGmXwBwxAD_dndwE-392">
          <mxGeometry relative="1" as="geometry">
            <Array as="points">
              <mxPoint x="-3559" y="1269" />
              <mxPoint x="-3559" y="2130" />
              <mxPoint x="-4098" y="2130" />
            </Array>
          </mxGeometry>
        </mxCell>
        <mxCell id="yzoUzGmXwBwxAD_dndwE-394" value="Exit System Call" style="rounded=1;whiteSpace=wrap;html=1;fillColor=#f8cecc;gradientColor=#ea6b66;strokeColor=#b85450;" vertex="1" parent="1">
          <mxGeometry x="-3789" y="1248.5" width="120" height="41" as="geometry" />
        </mxCell>
        <mxCell id="yzoUzGmXwBwxAD_dndwE-395" value="" style="edgeStyle=orthogonalEdgeStyle;rounded=1;orthogonalLoop=1;jettySize=auto;html=1;" edge="1" parent="1" source="yzoUzGmXwBwxAD_dndwE-396" target="yzoUzGmXwBwxAD_dndwE-399">
          <mxGeometry relative="1" as="geometry" />
        </mxCell>
        <mxCell id="yzoUzGmXwBwxAD_dndwE-396" value="Start" style="rounded=1;whiteSpace=wrap;html=1;fillColor=#d5e8d4;gradientColor=#97d077;strokeColor=#82b366;" vertex="1" parent="1">
          <mxGeometry x="-3069" y="1050" width="101.5" height="28" as="geometry" />
        </mxCell>
        <mxCell id="yzoUzGmXwBwxAD_dndwE-397" value="" style="edgeStyle=orthogonalEdgeStyle;rounded=1;orthogonalLoop=1;jettySize=auto;html=1;" edge="1" parent="1" source="yzoUzGmXwBwxAD_dndwE-399" target="yzoUzGmXwBwxAD_dndwE-401">
          <mxGeometry relative="1" as="geometry" />
        </mxCell>
        <mxCell id="yzoUzGmXwBwxAD_dndwE-398" value="" style="edgeStyle=orthogonalEdgeStyle;rounded=1;orthogonalLoop=1;jettySize=auto;html=1;" edge="1" parent="1" source="yzoUzGmXwBwxAD_dndwE-399" target="yzoUzGmXwBwxAD_dndwE-404">
          <mxGeometry relative="1" as="geometry" />
        </mxCell>
        <mxCell id="yzoUzGmXwBwxAD_dndwE-399" value="&lt;font style=&quot;font-size: 9px;&quot;&gt;Create Client Socket&lt;/font&gt;" style="rhombus;whiteSpace=wrap;html=1;shadow=0;fontFamily=Helvetica;fontSize=12;align=center;strokeWidth=1;spacing=6;spacingTop=-4;rounded=1;" vertex="1" parent="1">
          <mxGeometry x="-3069" y="1127" width="100" height="80" as="geometry" />
        </mxCell>
        <mxCell id="yzoUzGmXwBwxAD_dndwE-400" style="edgeStyle=orthogonalEdgeStyle;rounded=1;orthogonalLoop=1;jettySize=auto;html=1;entryX=0;entryY=0.5;entryDx=0;entryDy=0;" edge="1" parent="1" source="yzoUzGmXwBwxAD_dndwE-401" target="yzoUzGmXwBwxAD_dndwE-459">
          <mxGeometry relative="1" as="geometry" />
        </mxCell>
        <mxCell id="yzoUzGmXwBwxAD_dndwE-401" value="&lt;font style=&quot;font-size: 9px;&quot;&gt;Error Message&lt;/font&gt;" style="rounded=1;whiteSpace=wrap;html=1;fontSize=12;glass=0;strokeWidth=1;shadow=0;" vertex="1" parent="1">
          <mxGeometry x="-2919" y="1154.5" width="100" height="25" as="geometry" />
        </mxCell>
        <mxCell id="yzoUzGmXwBwxAD_dndwE-402" value="" style="edgeStyle=orthogonalEdgeStyle;rounded=1;orthogonalLoop=1;jettySize=auto;html=1;" edge="1" parent="1" source="yzoUzGmXwBwxAD_dndwE-404" target="yzoUzGmXwBwxAD_dndwE-406">
          <mxGeometry relative="1" as="geometry" />
        </mxCell>
        <mxCell id="yzoUzGmXwBwxAD_dndwE-403" value="" style="edgeStyle=orthogonalEdgeStyle;rounded=1;orthogonalLoop=1;jettySize=auto;html=1;" edge="1" parent="1" source="yzoUzGmXwBwxAD_dndwE-404" target="yzoUzGmXwBwxAD_dndwE-410">
          <mxGeometry relative="1" as="geometry">
            <Array as="points">
              <mxPoint x="-3019" y="1337" />
              <mxPoint x="-3249" y="1337" />
            </Array>
          </mxGeometry>
        </mxCell>
        <mxCell id="yzoUzGmXwBwxAD_dndwE-404" value="&lt;font style=&quot;font-size: 9px;&quot;&gt;Requesting &lt;br&gt;server to connect&lt;/font&gt;" style="rhombus;whiteSpace=wrap;html=1;shadow=0;fontFamily=Helvetica;fontSize=12;align=center;strokeWidth=1;spacing=6;spacingTop=-4;rounded=1;" vertex="1" parent="1">
          <mxGeometry x="-3069" y="1245.5" width="100" height="80" as="geometry" />
        </mxCell>
        <mxCell id="yzoUzGmXwBwxAD_dndwE-405" style="edgeStyle=orthogonalEdgeStyle;rounded=1;orthogonalLoop=1;jettySize=auto;html=1;entryX=0;entryY=0.5;entryDx=0;entryDy=0;" edge="1" parent="1" source="yzoUzGmXwBwxAD_dndwE-406" target="yzoUzGmXwBwxAD_dndwE-459">
          <mxGeometry relative="1" as="geometry" />
        </mxCell>
        <mxCell id="yzoUzGmXwBwxAD_dndwE-406" value="&lt;font style=&quot;font-size: 9px;&quot;&gt;Error Message&lt;/font&gt;" style="rounded=1;whiteSpace=wrap;html=1;fontSize=12;glass=0;strokeWidth=1;shadow=0;" vertex="1" parent="1">
          <mxGeometry x="-2919" y="1272.25" width="100" height="24.75" as="geometry" />
        </mxCell>
        <mxCell id="yzoUzGmXwBwxAD_dndwE-407" value="&lt;font style=&quot;font-size: 9px;&quot;&gt;-1&lt;/font&gt;" style="text;html=1;align=center;verticalAlign=middle;resizable=0;points=[];autosize=1;strokeColor=none;fillColor=none;rounded=1;" vertex="1" parent="1">
          <mxGeometry x="-2969" y="1144" width="30" height="30" as="geometry" />
        </mxCell>
        <mxCell id="yzoUzGmXwBwxAD_dndwE-408" value="&lt;span style=&quot;color: rgb(0, 0, 0); font-family: Helvetica; font-size: 9px; font-style: normal; font-variant-ligatures: normal; font-variant-caps: normal; font-weight: 400; letter-spacing: normal; orphans: 2; text-align: center; text-indent: 0px; text-transform: none; widows: 2; word-spacing: 0px; -webkit-text-stroke-width: 0px; background-color: rgb(251, 251, 251); text-decoration-thickness: initial; text-decoration-style: initial; text-decoration-color: initial; float: none; display: inline !important;&quot;&gt;-1&lt;/span&gt;" style="text;whiteSpace=wrap;html=1;rounded=1;" vertex="1" parent="1">
          <mxGeometry x="-2959" y="1264.63" width="40" height="40" as="geometry" />
        </mxCell>
        <mxCell id="yzoUzGmXwBwxAD_dndwE-409" value="" style="edgeStyle=orthogonalEdgeStyle;rounded=1;orthogonalLoop=1;jettySize=auto;html=1;exitX=0.504;exitY=1.086;exitDx=0;exitDy=0;exitPerimeter=0;" edge="1" parent="1" source="yzoUzGmXwBwxAD_dndwE-410" target="yzoUzGmXwBwxAD_dndwE-413">
          <mxGeometry relative="1" as="geometry">
            <mxPoint x="-3309.004358974359" y="1437" as="sourcePoint" />
          </mxGeometry>
        </mxCell>
        <mxCell id="yzoUzGmXwBwxAD_dndwE-410" value="User Credential thread" style="whiteSpace=wrap;html=1;shadow=0;strokeWidth=1;spacing=6;spacingTop=-4;rounded=1;" vertex="1" parent="1">
          <mxGeometry x="-3309" y="1372" width="120" height="45" as="geometry" />
        </mxCell>
        <mxCell id="yzoUzGmXwBwxAD_dndwE-411" value="" style="edgeStyle=orthogonalEdgeStyle;rounded=1;orthogonalLoop=1;jettySize=auto;html=1;" edge="1" parent="1" source="yzoUzGmXwBwxAD_dndwE-413" target="yzoUzGmXwBwxAD_dndwE-417">
          <mxGeometry relative="1" as="geometry" />
        </mxCell>
        <mxCell id="yzoUzGmXwBwxAD_dndwE-412" value="" style="edgeStyle=orthogonalEdgeStyle;rounded=1;orthogonalLoop=1;jettySize=auto;html=1;" edge="1" parent="1" source="yzoUzGmXwBwxAD_dndwE-413" target="yzoUzGmXwBwxAD_dndwE-425">
          <mxGeometry relative="1" as="geometry" />
        </mxCell>
        <mxCell id="yzoUzGmXwBwxAD_dndwE-413" value="login" style="rhombus;whiteSpace=wrap;html=1;shadow=0;strokeWidth=1;spacing=6;spacingTop=-4;rounded=1;" vertex="1" parent="1">
          <mxGeometry x="-3289.0299999999997" y="1467" width="80" height="80" as="geometry" />
        </mxCell>
        <mxCell id="yzoUzGmXwBwxAD_dndwE-414" value="if" style="text;html=1;align=center;verticalAlign=middle;resizable=0;points=[];autosize=1;strokeColor=none;fillColor=none;rounded=1;" vertex="1" parent="1">
          <mxGeometry x="-3256" y="1426" width="30" height="30" as="geometry" />
        </mxCell>
        <mxCell id="yzoUzGmXwBwxAD_dndwE-415" value="" style="edgeStyle=orthogonalEdgeStyle;rounded=1;orthogonalLoop=1;jettySize=auto;html=1;" edge="1" parent="1" source="yzoUzGmXwBwxAD_dndwE-417" target="yzoUzGmXwBwxAD_dndwE-421">
          <mxGeometry relative="1" as="geometry" />
        </mxCell>
        <mxCell id="yzoUzGmXwBwxAD_dndwE-416" value="" style="edgeStyle=orthogonalEdgeStyle;rounded=1;orthogonalLoop=1;jettySize=auto;html=1;" edge="1" parent="1" source="yzoUzGmXwBwxAD_dndwE-417" target="yzoUzGmXwBwxAD_dndwE-442">
          <mxGeometry relative="1" as="geometry" />
        </mxCell>
        <mxCell id="yzoUzGmXwBwxAD_dndwE-417" value="Signup" style="rhombus;whiteSpace=wrap;html=1;shadow=0;strokeWidth=1;spacing=6;spacingTop=-4;rounded=1;" vertex="1" parent="1">
          <mxGeometry x="-3289.0299999999997" y="1577" width="80" height="80" as="geometry" />
        </mxCell>
        <mxCell id="yzoUzGmXwBwxAD_dndwE-418" value="else if" style="text;html=1;align=center;verticalAlign=middle;resizable=0;points=[];autosize=1;strokeColor=none;fillColor=none;rounded=1;" vertex="1" parent="1">
          <mxGeometry x="-3255" y="1545" width="50" height="30" as="geometry" />
        </mxCell>
        <mxCell id="yzoUzGmXwBwxAD_dndwE-419" style="edgeStyle=orthogonalEdgeStyle;rounded=1;orthogonalLoop=1;jettySize=auto;html=1;entryX=0;entryY=0.5;entryDx=0;entryDy=0;" edge="1" parent="1" source="yzoUzGmXwBwxAD_dndwE-421" target="yzoUzGmXwBwxAD_dndwE-410">
          <mxGeometry relative="1" as="geometry">
            <Array as="points">
              <mxPoint x="-3329" y="1728" />
              <mxPoint x="-3329" y="1395" />
            </Array>
          </mxGeometry>
        </mxCell>
        <mxCell id="yzoUzGmXwBwxAD_dndwE-420" value="" style="edgeStyle=orthogonalEdgeStyle;rounded=1;orthogonalLoop=1;jettySize=auto;html=1;" edge="1" parent="1" source="yzoUzGmXwBwxAD_dndwE-421" target="yzoUzGmXwBwxAD_dndwE-455">
          <mxGeometry relative="1" as="geometry" />
        </mxCell>
        <mxCell id="yzoUzGmXwBwxAD_dndwE-421" value="Quit" style="rhombus;whiteSpace=wrap;html=1;shadow=0;strokeWidth=1;spacing=6;spacingTop=-4;rounded=1;" vertex="1" parent="1">
          <mxGeometry x="-3289.0299999999997" y="1688" width="80.03" height="80" as="geometry" />
        </mxCell>
        <mxCell id="yzoUzGmXwBwxAD_dndwE-422" value="else if" style="text;html=1;align=center;verticalAlign=middle;resizable=0;points=[];autosize=1;strokeColor=none;fillColor=none;rounded=1;" vertex="1" parent="1">
          <mxGeometry x="-3257" y="1655" width="50" height="30" as="geometry" />
        </mxCell>
        <mxCell id="yzoUzGmXwBwxAD_dndwE-423" value="else" style="text;html=1;align=center;verticalAlign=middle;resizable=0;points=[];autosize=1;strokeColor=none;fillColor=none;rounded=1;" vertex="1" parent="1">
          <mxGeometry x="-3334" y="1699" width="50" height="30" as="geometry" />
        </mxCell>
        <mxCell id="yzoUzGmXwBwxAD_dndwE-424" value="" style="edgeStyle=orthogonalEdgeStyle;rounded=1;orthogonalLoop=1;jettySize=auto;html=1;" edge="1" parent="1" source="yzoUzGmXwBwxAD_dndwE-425" target="yzoUzGmXwBwxAD_dndwE-427">
          <mxGeometry relative="1" as="geometry" />
        </mxCell>
        <mxCell id="yzoUzGmXwBwxAD_dndwE-425" value="&lt;font style=&quot;font-size: 9px;&quot;&gt;&lt;font style=&quot;&quot;&gt;Take user inputs&lt;br&gt;&lt;/font&gt;(username &amp;amp; password)&lt;/font&gt;" style="whiteSpace=wrap;html=1;shadow=0;strokeWidth=1;spacing=6;spacingTop=-4;rounded=1;" vertex="1" parent="1">
          <mxGeometry x="-3179" y="1490.75" width="110.03" height="32.5" as="geometry" />
        </mxCell>
        <mxCell id="yzoUzGmXwBwxAD_dndwE-426" value="" style="edgeStyle=orthogonalEdgeStyle;rounded=1;orthogonalLoop=1;jettySize=auto;html=1;" edge="1" parent="1" source="yzoUzGmXwBwxAD_dndwE-427" target="yzoUzGmXwBwxAD_dndwE-430">
          <mxGeometry relative="1" as="geometry" />
        </mxCell>
        <mxCell id="yzoUzGmXwBwxAD_dndwE-427" value="&lt;font style=&quot;font-size: 9px;&quot;&gt;Send User data to the server&lt;/font&gt;" style="whiteSpace=wrap;html=1;shadow=0;strokeWidth=1;spacing=6;spacingTop=-4;rounded=1;" vertex="1" parent="1">
          <mxGeometry x="-3038.99" y="1492" width="99.99" height="31.25" as="geometry" />
        </mxCell>
        <mxCell id="yzoUzGmXwBwxAD_dndwE-428" value="" style="edgeStyle=orthogonalEdgeStyle;rounded=1;orthogonalLoop=1;jettySize=auto;html=1;" edge="1" parent="1" source="yzoUzGmXwBwxAD_dndwE-430" target="yzoUzGmXwBwxAD_dndwE-433">
          <mxGeometry relative="1" as="geometry" />
        </mxCell>
        <mxCell id="yzoUzGmXwBwxAD_dndwE-429" value="" style="edgeStyle=orthogonalEdgeStyle;rounded=1;orthogonalLoop=1;jettySize=auto;html=1;" edge="1" parent="1" source="yzoUzGmXwBwxAD_dndwE-430" target="yzoUzGmXwBwxAD_dndwE-437">
          <mxGeometry relative="1" as="geometry" />
        </mxCell>
        <mxCell id="yzoUzGmXwBwxAD_dndwE-430" value="&lt;font style=&quot;font-size: 9px;&quot;&gt;Authentication Successful??&lt;/font&gt;" style="rhombus;whiteSpace=wrap;html=1;shadow=0;strokeWidth=1;spacing=6;spacingTop=-4;rounded=1;" vertex="1" parent="1">
          <mxGeometry x="-2898.995" y="1467.625" width="80" height="80" as="geometry" />
        </mxCell>
        <mxCell id="yzoUzGmXwBwxAD_dndwE-431" style="edgeStyle=orthogonalEdgeStyle;rounded=1;orthogonalLoop=1;jettySize=auto;html=1;entryX=1;entryY=0.5;entryDx=0;entryDy=0;" edge="1" parent="1" source="yzoUzGmXwBwxAD_dndwE-433" target="yzoUzGmXwBwxAD_dndwE-410">
          <mxGeometry relative="1" as="geometry" />
        </mxCell>
        <mxCell id="yzoUzGmXwBwxAD_dndwE-432" style="edgeStyle=orthogonalEdgeStyle;rounded=1;orthogonalLoop=1;jettySize=auto;html=1;entryX=0.5;entryY=1;entryDx=0;entryDy=0;" edge="1" parent="1" source="yzoUzGmXwBwxAD_dndwE-433" target="yzoUzGmXwBwxAD_dndwE-459">
          <mxGeometry relative="1" as="geometry">
            <Array as="points">
              <mxPoint x="-2859" y="1317" />
              <mxPoint x="-2719" y="1317" />
            </Array>
          </mxGeometry>
        </mxCell>
        <mxCell id="yzoUzGmXwBwxAD_dndwE-433" value="&lt;font style=&quot;font-size: 9px;&quot;&gt;Do you want &lt;br&gt;to try again&lt;/font&gt;" style="rhombus;whiteSpace=wrap;html=1;shadow=0;strokeWidth=1;spacing=6;spacingTop=-4;rounded=1;" vertex="1" parent="1">
          <mxGeometry x="-2904" y="1351.99" width="90" height="85.01" as="geometry" />
        </mxCell>
        <mxCell id="yzoUzGmXwBwxAD_dndwE-434" value="@yes" style="text;html=1;align=center;verticalAlign=middle;resizable=0;points=[];autosize=1;strokeColor=none;fillColor=none;" vertex="1" parent="1">
          <mxGeometry x="-2984" y="1369" width="50" height="30" as="geometry" />
        </mxCell>
        <mxCell id="yzoUzGmXwBwxAD_dndwE-435" value="No" style="text;html=1;align=center;verticalAlign=middle;resizable=0;points=[];autosize=1;strokeColor=none;fillColor=none;" vertex="1" parent="1">
          <mxGeometry x="-2869" y="1440" width="40" height="30" as="geometry" />
        </mxCell>
        <mxCell id="yzoUzGmXwBwxAD_dndwE-436" value="" style="edgeStyle=orthogonalEdgeStyle;rounded=1;orthogonalLoop=1;jettySize=auto;html=1;" edge="1" parent="1" source="yzoUzGmXwBwxAD_dndwE-437" target="yzoUzGmXwBwxAD_dndwE-439">
          <mxGeometry relative="1" as="geometry" />
        </mxCell>
        <mxCell id="yzoUzGmXwBwxAD_dndwE-437" value="&lt;font style=&quot;font-size: 9px;&quot;&gt;Send &amp;amp; Receive Messages from Server&lt;/font&gt;" style="whiteSpace=wrap;html=1;shadow=0;strokeWidth=1;spacing=6;spacingTop=-4;rounded=1;" vertex="1" parent="1">
          <mxGeometry x="-2779" y="1491.5" width="119.99" height="31.25" as="geometry" />
        </mxCell>
        <mxCell id="yzoUzGmXwBwxAD_dndwE-438" style="edgeStyle=orthogonalEdgeStyle;rounded=1;orthogonalLoop=1;jettySize=auto;html=1;" edge="1" parent="1" source="yzoUzGmXwBwxAD_dndwE-439" target="yzoUzGmXwBwxAD_dndwE-457">
          <mxGeometry relative="1" as="geometry">
            <Array as="points">
              <mxPoint x="-2529" y="1507" />
            </Array>
          </mxGeometry>
        </mxCell>
        <mxCell id="yzoUzGmXwBwxAD_dndwE-439" value="&lt;font style=&quot;font-size: 9px;&quot;&gt;if message = @exit&lt;/font&gt;" style="rhombus;whiteSpace=wrap;html=1;shadow=0;strokeWidth=1;spacing=6;spacingTop=-4;rounded=1;" vertex="1" parent="1">
          <mxGeometry x="-2634.9950000000003" y="1467.005" width="80" height="80" as="geometry" />
        </mxCell>
        <mxCell id="yzoUzGmXwBwxAD_dndwE-440" style="edgeStyle=orthogonalEdgeStyle;rounded=1;orthogonalLoop=1;jettySize=auto;html=1;entryX=0.476;entryY=1.034;entryDx=0;entryDy=0;entryPerimeter=0;" edge="1" parent="1" source="yzoUzGmXwBwxAD_dndwE-439" target="yzoUzGmXwBwxAD_dndwE-437">
          <mxGeometry relative="1" as="geometry">
            <Array as="points">
              <mxPoint x="-2595" y="1565" />
              <mxPoint x="-2722" y="1565" />
            </Array>
          </mxGeometry>
        </mxCell>
        <mxCell id="yzoUzGmXwBwxAD_dndwE-441" value="" style="edgeStyle=orthogonalEdgeStyle;rounded=1;orthogonalLoop=1;jettySize=auto;html=1;" edge="1" parent="1" source="yzoUzGmXwBwxAD_dndwE-442" target="yzoUzGmXwBwxAD_dndwE-444">
          <mxGeometry relative="1" as="geometry" />
        </mxCell>
        <mxCell id="yzoUzGmXwBwxAD_dndwE-442" value="&lt;font style=&quot;font-size: 9px;&quot;&gt;&lt;font style=&quot;&quot;&gt;Take new user inputs&lt;br&gt;&lt;/font&gt;(username &amp;amp; password)&lt;/font&gt;" style="whiteSpace=wrap;html=1;shadow=0;strokeWidth=1;spacing=6;spacingTop=-4;rounded=1;" vertex="1" parent="1">
          <mxGeometry x="-3179" y="1600.75" width="110.03" height="32.5" as="geometry" />
        </mxCell>
        <mxCell id="yzoUzGmXwBwxAD_dndwE-443" value="" style="edgeStyle=orthogonalEdgeStyle;rounded=1;orthogonalLoop=1;jettySize=auto;html=1;" edge="1" parent="1" source="yzoUzGmXwBwxAD_dndwE-444" target="yzoUzGmXwBwxAD_dndwE-447">
          <mxGeometry relative="1" as="geometry" />
        </mxCell>
        <mxCell id="yzoUzGmXwBwxAD_dndwE-444" value="&lt;font style=&quot;font-size: 9px;&quot;&gt;Send User data to the server&lt;/font&gt;" style="whiteSpace=wrap;html=1;shadow=0;strokeWidth=1;spacing=6;spacingTop=-4;rounded=1;" vertex="1" parent="1">
          <mxGeometry x="-3038.99" y="1601.37" width="99.99" height="31.25" as="geometry" />
        </mxCell>
        <mxCell id="yzoUzGmXwBwxAD_dndwE-445" value="" style="edgeStyle=orthogonalEdgeStyle;rounded=1;orthogonalLoop=1;jettySize=auto;html=1;" edge="1" parent="1" source="yzoUzGmXwBwxAD_dndwE-447" target="yzoUzGmXwBwxAD_dndwE-449">
          <mxGeometry relative="1" as="geometry" />
        </mxCell>
        <mxCell id="yzoUzGmXwBwxAD_dndwE-446" style="edgeStyle=orthogonalEdgeStyle;rounded=1;orthogonalLoop=1;jettySize=auto;html=1;entryX=1;entryY=0.5;entryDx=0;entryDy=0;" edge="1" parent="1">
          <mxGeometry relative="1" as="geometry">
            <mxPoint x="-2859" y="1657.9899999999998" as="sourcePoint" />
            <mxPoint x="-2814" y="1395.4950000000001" as="targetPoint" />
            <Array as="points">
              <mxPoint x="-2859" y="1688" />
              <mxPoint x="-2469" y="1688" />
              <mxPoint x="-2469" y="1396" />
            </Array>
          </mxGeometry>
        </mxCell>
        <mxCell id="yzoUzGmXwBwxAD_dndwE-447" value="&lt;font style=&quot;font-size: 9px;&quot;&gt;is Username Taken?&lt;/font&gt;" style="rhombus;whiteSpace=wrap;html=1;shadow=0;strokeWidth=1;spacing=6;spacingTop=-4;rounded=1;" vertex="1" parent="1">
          <mxGeometry x="-2898.995" y="1576.995" width="80" height="80" as="geometry" />
        </mxCell>
        <mxCell id="yzoUzGmXwBwxAD_dndwE-448" value="" style="edgeStyle=orthogonalEdgeStyle;rounded=1;orthogonalLoop=1;jettySize=auto;html=1;" edge="1" parent="1" source="yzoUzGmXwBwxAD_dndwE-449" target="yzoUzGmXwBwxAD_dndwE-451">
          <mxGeometry relative="1" as="geometry" />
        </mxCell>
        <mxCell id="yzoUzGmXwBwxAD_dndwE-449" value="&lt;font style=&quot;font-size: 9px;&quot;&gt;Send &amp;amp; Receive Messages from Server&lt;/font&gt;" style="whiteSpace=wrap;html=1;shadow=0;strokeWidth=1;spacing=6;spacingTop=-4;rounded=1;" vertex="1" parent="1">
          <mxGeometry x="-2779" y="1600.75" width="119.99" height="31.25" as="geometry" />
        </mxCell>
        <mxCell id="yzoUzGmXwBwxAD_dndwE-450" style="edgeStyle=orthogonalEdgeStyle;rounded=1;orthogonalLoop=1;jettySize=auto;html=1;entryX=0.5;entryY=1;entryDx=0;entryDy=0;" edge="1" parent="1" source="yzoUzGmXwBwxAD_dndwE-451" target="yzoUzGmXwBwxAD_dndwE-457">
          <mxGeometry relative="1" as="geometry">
            <Array as="points">
              <mxPoint x="-2529" y="1616" />
            </Array>
          </mxGeometry>
        </mxCell>
        <mxCell id="yzoUzGmXwBwxAD_dndwE-451" value="&lt;font style=&quot;font-size: 9px;&quot;&gt;if message = @exit&lt;/font&gt;" style="rhombus;whiteSpace=wrap;html=1;shadow=0;strokeWidth=1;spacing=6;spacingTop=-4;rounded=1;" vertex="1" parent="1">
          <mxGeometry x="-2634.9950000000003" y="1576.375" width="80" height="80" as="geometry" />
        </mxCell>
        <mxCell id="yzoUzGmXwBwxAD_dndwE-452" style="edgeStyle=orthogonalEdgeStyle;rounded=1;orthogonalLoop=1;jettySize=auto;html=1;entryX=0.476;entryY=1.034;entryDx=0;entryDy=0;entryPerimeter=0;" edge="1" parent="1" source="yzoUzGmXwBwxAD_dndwE-451" target="yzoUzGmXwBwxAD_dndwE-449">
          <mxGeometry relative="1" as="geometry">
            <Array as="points">
              <mxPoint x="-2595" y="1678" />
              <mxPoint x="-2722" y="1678" />
            </Array>
          </mxGeometry>
        </mxCell>
        <mxCell id="yzoUzGmXwBwxAD_dndwE-453" value="No" style="text;html=1;align=center;verticalAlign=middle;resizable=0;points=[];autosize=1;strokeColor=none;fillColor=none;" vertex="1" parent="1">
          <mxGeometry x="-2825" y="1592" width="40" height="30" as="geometry" />
        </mxCell>
        <mxCell id="yzoUzGmXwBwxAD_dndwE-454" style="edgeStyle=orthogonalEdgeStyle;rounded=1;orthogonalLoop=1;jettySize=auto;html=1;entryX=0.5;entryY=0;entryDx=0;entryDy=0;" edge="1" parent="1" source="yzoUzGmXwBwxAD_dndwE-455" target="yzoUzGmXwBwxAD_dndwE-460">
          <mxGeometry relative="1" as="geometry" />
        </mxCell>
        <mxCell id="yzoUzGmXwBwxAD_dndwE-455" value="Exit System Call" style="whiteSpace=wrap;html=1;shadow=0;strokeWidth=1;spacing=6;spacingTop=-4;rounded=1;fillColor=#f8cecc;gradientColor=#ea6b66;strokeColor=#b85450;" vertex="1" parent="1">
          <mxGeometry x="-3159" y="1713" width="99.98" height="29" as="geometry" />
        </mxCell>
        <mxCell id="yzoUzGmXwBwxAD_dndwE-456" style="edgeStyle=orthogonalEdgeStyle;rounded=1;orthogonalLoop=1;jettySize=auto;html=1;" edge="1" parent="1" source="yzoUzGmXwBwxAD_dndwE-457" target="yzoUzGmXwBwxAD_dndwE-460">
          <mxGeometry relative="1" as="geometry">
            <Array as="points">
              <mxPoint x="-2429" y="1561" />
              <mxPoint x="-2429" y="1787" />
              <mxPoint x="-3018" y="1787" />
            </Array>
          </mxGeometry>
        </mxCell>
        <mxCell id="yzoUzGmXwBwxAD_dndwE-457" value="Exit system call" style="whiteSpace=wrap;html=1;rounded=1;fillColor=#f8cecc;gradientColor=#ea6b66;strokeColor=#b85450;" vertex="1" parent="1">
          <mxGeometry x="-2579" y="1546.37" width="100" height="30" as="geometry" />
        </mxCell>
        <mxCell id="yzoUzGmXwBwxAD_dndwE-458" style="edgeStyle=orthogonalEdgeStyle;rounded=1;orthogonalLoop=1;jettySize=auto;html=1;entryX=0.5;entryY=0;entryDx=0;entryDy=0;" edge="1" parent="1" source="yzoUzGmXwBwxAD_dndwE-459" target="yzoUzGmXwBwxAD_dndwE-460">
          <mxGeometry relative="1" as="geometry">
            <Array as="points">
              <mxPoint x="-2429" y="1231" />
              <mxPoint x="-2429" y="1787" />
              <mxPoint x="-3018" y="1787" />
            </Array>
          </mxGeometry>
        </mxCell>
        <mxCell id="yzoUzGmXwBwxAD_dndwE-459" value="Exit system call" style="whiteSpace=wrap;html=1;rounded=1;fillColor=#f8cecc;gradientColor=#ea6b66;strokeColor=#b85450;" vertex="1" parent="1">
          <mxGeometry x="-2769.01" y="1215.5" width="100" height="30" as="geometry" />
        </mxCell>
        <mxCell id="yzoUzGmXwBwxAD_dndwE-460" value="End Program" style="whiteSpace=wrap;html=1;rounded=1;fillColor=#f8cecc;gradientColor=#ea6b66;strokeColor=#b85450;" vertex="1" parent="1">
          <mxGeometry x="-3073.25" y="1832" width="110" height="30" as="geometry" />
        </mxCell>
        <mxCell id="yzoUzGmXwBwxAD_dndwE-461" value="&lt;font style=&quot;font-size: 36px;&quot;&gt;Server Flow Chart&lt;/font&gt;" style="rounded=0;whiteSpace=wrap;html=1;" vertex="1" parent="1">
          <mxGeometry x="-4275" y="930" width="354" height="70" as="geometry" />
        </mxCell>
        <mxCell id="yzoUzGmXwBwxAD_dndwE-462" value="&lt;font style=&quot;font-size: 36px;&quot;&gt;Client Flow Chart&lt;/font&gt;" style="rounded=0;whiteSpace=wrap;html=1;" vertex="1" parent="1">
          <mxGeometry x="-3026" y="950" width="354" height="70" as="geometry" />
        </mxCell>
        <mxCell id="yzoUzGmXwBwxAD_dndwE-463" value="@exit" style="text;html=1;strokeColor=none;fillColor=none;align=center;verticalAlign=middle;whiteSpace=wrap;rounded=0;" vertex="1" parent="1">
          <mxGeometry x="-2869" y="1310" width="60" height="30" as="geometry" />
        </mxCell>
        <mxCell id="yzoUzGmXwBwxAD_dndwE-464" value="@exit" style="text;html=1;strokeColor=none;fillColor=none;align=center;verticalAlign=middle;whiteSpace=wrap;rounded=0;" vertex="1" parent="1">
          <mxGeometry x="-2539" y="1515" width="60" height="30" as="geometry" />
        </mxCell>
        <mxCell id="yzoUzGmXwBwxAD_dndwE-465" value="@exit" style="text;html=1;strokeColor=none;fillColor=none;align=center;verticalAlign=middle;whiteSpace=wrap;rounded=0;" vertex="1" parent="1">
          <mxGeometry x="-2539" y="1580" width="60" height="30" as="geometry" />
        </mxCell>
        <mxCell id="yzoUzGmXwBwxAD_dndwE-466" value="No" style="text;html=1;align=center;verticalAlign=middle;resizable=0;points=[];autosize=1;strokeColor=none;fillColor=none;" vertex="1" parent="1">
          <mxGeometry x="-2659.01" y="1540" width="40" height="30" as="geometry" />
        </mxCell>
        <mxCell id="yzoUzGmXwBwxAD_dndwE-467" value="No" style="text;html=1;align=center;verticalAlign=middle;resizable=0;points=[];autosize=1;strokeColor=none;fillColor=none;" vertex="1" parent="1">
          <mxGeometry x="-2659.01" y="1650" width="40" height="30" as="geometry" />
        </mxCell>
        <mxCell id="yzoUzGmXwBwxAD_dndwE-468" value="Yes" style="text;html=1;align=center;verticalAlign=middle;resizable=0;points=[];autosize=1;strokeColor=none;fillColor=none;" vertex="1" parent="1">
          <mxGeometry x="-2829" y="1662.5" width="40" height="30" as="geometry" />
        </mxCell>
      </root>
    </mxGraphModel>
  </diagram>
</mxfile>
